<?xml version="1.0" encoding="UTF-8"?>
<svg id="Ebene_1" xmlns="http://www.w3.org/2000/svg" version="1.1" viewBox="0 0 1234.77 396.07">
  <!-- Generator: Adobe Illustrator 29.5.1, SVG Export Plug-In . SVG Version: 2.1.0 Build 141)  -->
  <defs>
    <style>
      .st0 {
        fill: none;
        stroke: #1d1d1b;
        stroke-miterlimit: 10;
        stroke-width: 1.5px;
      }
    </style>
  </defs>
  <g>
    <path class="st0" d="M889.25,54.4l-38.89,101.3-.7-.27,38.88-101.3.71.27ZM912.39,179.5l-62.73-24.08,38.89-101.29.7.27,62.02,23.8-38.88,101.3ZM887.05,177.3c-.35.9-1.36,1.36-2.27,1.02l-13.1-5.03c-.9-.35-1.35-1.37-1-2.27l.31-.82c.35-.9,1.36-1.35,2.26-1.01l13.1,5.03c.9.35,1.35,1.36,1.01,2.26l-.31.82ZM923.56,62.29c-.33.85-1.28,1.27-2.12.95-.85-.33-1.27-1.28-.95-2.12.33-.85,1.28-1.27,2.12-.95,0,0,0,0,0,0,.85.32,1.27,1.27.95,2.11,0,0,0,0,0,.01ZM915.69,53.75c.17-.45,1.05-.53,1.95-.19l13.1,5.03c.9.35,1.5.99,1.32,1.44l-.16.42c-.17.45-1.05.53-1.95.2l-13.1-5.05c-.9-.35-1.49-.99-1.32-1.45l.16-.4ZM947.88,61.65l-45.03-17.28c-7.35-2.8-15.57.86-18.41,8.19l-38.89,101.3c-2.8,7.35.87,15.57,8.2,18.41l45.02,17.28c7.35,2.8,15.57-.87,18.41-8.2l38.89-101.3c2.8-7.34-.86-15.57-8.19-18.4h0ZM1190.91,151.5l4.13-2.73,1.89,2.85-4.13,2.73-1.89-2.85Z"/>
    <path class="st0" d="M1132.4,235.93c-3.43,2.27-8.05,1.33-10.33-2.1l-113.9-172.09c-2.27-3.43-1.33-8.05,2.1-10.33l69.03-45.69c3.43-2.27,8.05-1.33,10.33,2.1l113.9,172.09c2.27,3.43,1.33,8.05-2.1,10.33l-69.03,45.69ZM1195.04,148.75l1.89,2.85-4.13,2.73-1.89-2.85,4.13-2.73ZM1206.65,177.85l-12.98-19.61,6.88-4.55c.86-.57,1.1-1.73.53-2.59l-.64-.96c4.85-2.7,8.58-7.04,10.52-12.24,3.3-8.79,1.65-19.73-4.9-32.5-3.96-7.72-4.56-14.87-1.79-21.26,6.32-14.57,28.18-21.01,28.4-21.07.99-.29,1.57-1.32,1.29-2.32l-.24-.51c-.45-.68-1.28-.99-2.07-.77-.97.28-23.76,6.94-30.8,23.17-3.24,7.47-2.61,15.7,1.9,24.46,6.04,11.77,7.64,21.67,4.75,29.42-1.69,4.47-4.92,8.18-9.12,10.47l-1.23-1.87c-.57-.86-1.73-1.1-2.59-.53,0,0,0,0,0,0l-6.88,4.55L1092.76,5.76c-3.41-5.15-10.35-6.56-15.51-3.16l-69.02,45.69c-5.15,3.42-6.56,10.35-3.16,15.51l113.9,172.09c3.41,5.15,10.35,6.56,15.51,3.16l69.02-45.69c5.15-3.42,6.56-10.35,3.16-15.51h-.01Z"/>
    <path id="A" class="st0" d="M1081.75,21.1l3.88,5.87-3.48,2.3-3.89-5.87,3.48-2.3ZM1074.8,23.83l5.61,8.48c.48.72,1.45.92,2.17.44,0,0,0,0,0,0l6.1-4.03c.72-.48.92-1.45.44-2.16,0,0,0,0,0,0l-5.61-8.48c-.48-.72-1.45-.92-2.17-.44,0,0,0,0,0,0l-6.1,4.03c-.72.48-.92,1.45-.44,2.16,0,0,0,0,0,0Z"/>
    <path class="st0" d="M1090.47,41.84l-3.89-5.87,3.48-2.3,3.89,5.87-3.48,2.3ZM1097.42,39.11l-5.61-8.48c-.48-.72-1.45-.92-2.17-.44,0,0,0,0,0,0l-6.09,4.03c-.72.48-.92,1.45-.44,2.16,0,0,0,0,0,0l5.61,8.48c.48.72,1.45.92,2.17.44,0,0,0,0,0,0l6.09-4.03c.72-.48.92-1.45.44-2.17,0,0,0,0,0,0h0Z"/>
    <path id="B" class="st0" d="M1101.04,57.81l-3.89-5.87,3.48-2.3,3.89,5.87-3.48,2.3ZM1107.99,55.09l-5.61-8.48c-.48-.72-1.45-.92-2.17-.44,0,0,0,0,0,0l-6.09,4.03c-.72.48-.92,1.45-.44,2.17l5.61,8.48c.48.72,1.45.92,2.17.44,0,0,0,0,0,0l6.09-4.03c.72-.47.92-1.44.44-2.16,0,0,0,0,0,0h0Z"/>
    <path id="A1" data-name="A" class="st0" d="M1108.95,62.2l3.88,5.87-3.48,2.3-3.89-5.87,3.48-2.3ZM1102,64.92l5.61,8.48c.48.72,1.45.92,2.17.44,0,0,0,0,0,0l6.1-4.03c.72-.48.92-1.45.44-2.16,0,0,0,0,0,0l-5.61-8.48c-.48-.72-1.45-.92-2.17-.44,0,0,0,0,0,0l-6.1,4.03c-.72.48-.92,1.45-.44,2.16,0,0,0,0,0,0Z"/>
    <path id="A2" data-name="A" class="st0" d="M1119.52,78.17l3.88,5.87-3.48,2.3-3.89-5.87,3.48-2.3ZM1112.57,80.9l5.61,8.48c.48.72,1.45.92,2.17.44,0,0,0,0,0,0l6.1-4.03c.72-.48.92-1.45.44-2.16,0,0,0,0,0,0l-5.61-8.48c-.48-.72-1.45-.92-2.17-.44,0,0,0,0,0,0l-6.1,4.03c-.72.48-.92,1.45-.44,2.16,0,0,0,0,0,0Z"/>
    <path class="st0" d="M1127.83,90.73l3.88,5.87-3.48,2.3-3.89-5.87,3.48-2.3ZM1120.88,93.45l5.61,8.48c.48.72,1.45.92,2.17.44,0,0,0,0,0,0l6.1-4.03c.72-.48.92-1.45.44-2.17l-5.61-8.48c-.48-.72-1.45-.92-2.17-.44,0,0,0,0,0,0l-6.1,4.03c-.72.48-.92,1.45-.44,2.16,0,0,0,0,0,0h0Z"/>
    <path id="A3" data-name="A" class="st0" d="M1138.41,106.7l3.88,5.87-3.48,2.3-3.89-5.87,3.48-2.3ZM1131.46,109.43l5.61,8.48c.48.72,1.45.92,2.17.44,0,0,0,0,0,0l6.1-4.03c.72-.48.92-1.45.44-2.16,0,0,0,0,0,0l-5.61-8.48c-.48-.72-1.45-.92-2.17-.44,0,0,0,0,0,0l-6.1,4.03c-.72.48-.92,1.45-.44,2.16,0,0,0,0,0,0Z"/>
    <path class="st0" d="M1147.12,127.43l-3.88-5.87,3.48-2.3,3.89,5.87-3.48,2.3ZM1154.07,124.71l-5.61-8.48c-.48-.72-1.45-.92-2.17-.44,0,0,0,0,0,0l-6.09,4.03c-.72.48-.92,1.45-.44,2.16,0,0,0,0,0,0l5.61,8.48c.48.72,1.45.92,2.17.44,0,0,0,0,0,0l6.09-4.03c.72-.47.92-1.44.44-2.16,0,0,0,0,0,0h0Z"/>
    <path id="B1" data-name="B" class="st0" d="M1157.69,143.41l-3.89-5.87,3.48-2.3,3.89,5.87-3.48,2.3ZM1164.65,140.68l-5.61-8.48c-.48-.72-1.45-.92-2.17-.44,0,0,0,0,0,0l-6.09,4.03c-.72.48-.92,1.45-.44,2.17l5.61,8.48c.48.72,1.45.92,2.17.44,0,0,0,0,0,0l6.09-4.03c.72-.47.92-1.44.44-2.16,0,0,0,0,0,0h0Z"/>
    <path class="st0" d="M1166.01,155.96l-3.88-5.87,3.48-2.3,3.89,5.87-3.48,2.3ZM1172.96,153.24l-5.6-8.48c-.48-.72-1.45-.92-2.17-.44,0,0,0,0,0,0l-6.09,4.03c-.72.48-.92,1.45-.44,2.17l5.61,8.48c.48.72,1.45.92,2.17.44,0,0,0,0,0,0l6.09-4.03c.72-.47.92-1.44.44-2.16,0,0,0,0,0,0h-.01ZM1176.18,163.77l3.89,5.87-3.48,2.3-3.89-5.87,3.48-2.3ZM1169.22,166.49l5.6,8.48c.48.72,1.45.92,2.17.44,0,0,0,0,0,0l6.09-4.03c.72-.48.92-1.45.44-2.17,0,0,0,0,0,0l-5.61-8.48c-.48-.72-1.45-.92-2.17-.44,0,0,0,0,0,0l-6.09,4.03c-.72.47-.92,1.44-.44,2.16,0,0,0,0,0,0h.01Z"/>
    <path id="A4" data-name="A" class="st0" d="M1184.49,176.32l3.88,5.87-3.48,2.3-3.89-5.87,3.48-2.3ZM1177.53,179.05l5.61,8.48c.48.72,1.45.92,2.17.44,0,0,0,0,0,0l6.1-4.03c.72-.48.92-1.45.44-2.16,0,0,0,0,0,0l-5.61-8.48c-.48-.72-1.45-.92-2.17-.44,0,0,0,0,0,0l-6.1,4.03c-.72.48-.92,1.45-.44,2.16,0,0,0,0,0,0Z"/>
    <path class="st0" d="M1070.83,28.34l3.89,5.87-6.09,4.03-3.89-5.87,6.09-4.03ZM1061.27,32.79l5.6,8.48c.48.72,1.45.92,2.17.44,0,0,0,0,0,0l8.7-5.76c.72-.48.92-1.45.44-2.17,0,0,0,0,0,0l-5.6-8.48c-.48-.72-1.45-.92-2.17-.44,0,0,0,0,0,0l-8.7,5.76c-.72.48-.92,1.45-.44,2.17,0,0,0,0,0,0ZM1076.94,50.79l-3.89-5.87,6.09-4.03,3.89,5.87-6.09,4.03ZM1086.5,46.34l-5.6-8.48c-.48-.72-1.45-.92-2.17-.44l-8.7,5.75c-.72.48-.92,1.45-.44,2.17,0,0,0,0,0,0l5.6,8.48c.48.72,1.45.92,2.17.44,0,0,0,0,0,0l8.7-5.76c.72-.48.92-1.45.44-2.17,0,0,0,0,0,0ZM1087.51,66.77l-3.89-5.87,6.09-4.03,3.89,5.87-6.09,4.03ZM1097.07,62.32l-5.6-8.48c-.48-.72-1.45-.92-2.17-.44,0,0,0,0,0,0l-8.7,5.75c-.72.48-.92,1.45-.44,2.17,0,0,0,0,0,0l5.6,8.48c.48.72,1.45.92,2.17.44,0,0,0,0,0,0l8.7-5.75c.72-.48.92-1.45.44-2.17,0,0,0,0,0,0ZM1098.02,69.43l3.89,5.87-6.09,4.03-3.89-5.87,6.09-4.03ZM1088.46,73.88l5.6,8.48c.48.72,1.45.92,2.17.44l8.7-5.75c.72-.48.92-1.45.44-2.17,0,0,0,0,0,0l-5.6-8.48c-.48-.72-1.45-.92-2.17-.44,0,0,0,0,0,0l-8.7,5.75c-.72.48-.92,1.45-.44,2.17,0,0,0,0,0,0ZM1108.6,85.4l3.89,5.87-6.09,4.03-3.89-5.87,6.09-4.03ZM1099.04,89.85l5.6,8.48c.48.72,1.45.92,2.17.44l8.7-5.75c.72-.48.92-1.45.44-2.17,0,0,0,0,0,0l-5.6-8.48c-.48-.72-1.45-.92-2.17-.44,0,0,0,0,0,0l-8.7,5.75c-.72.48-.92,1.45-.44,2.17,0,0,0,0,0,0ZM1116.91,97.96l3.89,5.87-6.09,4.03-3.89-5.87,6.09-4.03ZM1107.35,102.41l5.6,8.48c.48.72,1.45.92,2.17.44,0,0,0,0,0,0l8.7-5.76c.72-.48.92-1.45.44-2.17,0,0,0,0,0,0l-5.6-8.48c-.48-.72-1.45-.92-2.17-.44,0,0,0,0,0,0l-8.7,5.75c-.72.48-.92,1.45-.44,2.17,0,0,0,0,0,0ZM1127.48,113.93l3.89,5.87-6.09,4.03-3.89-5.87,6.09-4.03ZM1117.92,118.38l5.6,8.48c.48.72,1.45.92,2.17.44l8.7-5.75c.72-.48.92-1.45.44-2.17,0,0,0,0,0,0l-5.6-8.48c-.48-.72-1.45-.92-2.17-.44,0,0,0,0,0,0l-8.7,5.76c-.72.48-.92,1.45-.44,2.17,0,0,0,0,0,0ZM1133.59,136.38l-3.89-5.87,6.09-4.03,3.89,5.87-6.09,4.03ZM1143.15,131.93l-5.6-8.48c-.48-.72-1.45-.92-2.17-.44l-8.7,5.76c-.72.47-.92,1.44-.44,2.16,0,0,0,0,0,0l5.6,8.48c.48.72,1.45.92,2.17.44,0,0,0,0,0,0l8.7-5.75c.72-.48.92-1.45.44-2.17,0,0,0,0,0,0ZM1144.16,152.36l-3.89-5.87,6.09-4.03,3.89,5.87-6.09,4.03ZM1153.72,147.91l-5.6-8.48c-.48-.72-1.45-.92-2.17-.44,0,0,0,0,0,0l-8.7,5.76c-.72.48-.92,1.45-.44,2.17,0,0,0,0,0,0l5.6,8.48c.48.72,1.45.92,2.17.44,0,0,0,0,0,0l8.7-5.75c.72-.48.92-1.45.44-2.17,0,0,0,0,0,0ZM1152.47,164.92l-3.89-5.87,6.09-4.03,3.89,5.87-6.09,4.03ZM1162.03,160.47l-5.6-8.48c-.48-.72-1.45-.92-2.17-.44h0s-8.7,5.76-8.7,5.76c-.72.48-.92,1.45-.44,2.17,0,0,0,0,0,0l5.6,8.48c.48.72,1.45.92,2.17.44,0,0,0,0,0,0l8.7-5.75c.72-.48.92-1.45.44-2.17,0,0,0,0,0,0ZM1165.25,171l3.89,5.87-6.09,4.03-3.89-5.87,6.09-4.03ZM1155.69,175.45l5.6,8.48c.48.72,1.45.92,2.17.44,0,0,0,0,0,0l8.7-5.76c.72-.48.92-1.45.44-2.17,0,0,0,0,0,0l-5.6-8.48c-.48-.72-1.45-.92-2.17-.44,0,0,0,0,0,0l-8.7,5.75c-.72.48-.92,1.45-.44,2.17,0,0,0,0,0,0Z"/>
    <path id="C" class="st0" d="M1059.8,85.12l-3.89-5.87,6.09-4.03,3.89,5.87-6.09,4.03ZM1069.36,80.67l-5.61-8.48c-.48-.72-1.45-.92-2.17-.44,0,0,0,0,0,0l-8.7,5.76c-.72.48-.92,1.45-.44,2.17,0,0,0,0,0,0l5.61,8.48c.48.72,1.45.92,2.17.44,0,0,0,0,0,0l8.7-5.76c.72-.47.92-1.44.44-2.16,0,0,0,0,0,0Z"/>
    <path class="st0" d="M1044.91,94.97l-3.89-5.87,6.09-4.03,3.89,5.87-6.09,4.03ZM1054.46,90.52l-5.6-8.48c-.48-.72-1.45-.92-2.17-.44l-8.69,5.75c-.72.47-.92,1.44-.44,2.16,0,0,0,0,0,0l5.6,8.48c.48.72,1.45.92,2.17.44,0,0,0,0,0,0l8.69-5.75c.72-.48.92-1.45.44-2.17h0ZM1090.88,164.43l-41.55-62.77,6.09-4.03,41.55,62.77-6.09,4.03ZM1100.43,159.98l-43.27-65.38c-.48-.72-1.45-.92-2.17-.44,0,0,0,0,0,0l-8.69,5.75c-.72.48-.92,1.45-.44,2.17,0,0,0,0,0,0l43.27,65.38c.48.72,1.45.92,2.17.44,0,0,0,0,0,0l8.69-5.75c.72-.48.92-1.45.44-2.17h0ZM1070.31,87.77l3.89,5.87-6.09,4.03-3.89-5.87,6.09-4.03ZM1060.75,92.22l5.6,8.48c.48.72,1.45.92,2.17.44,0,0,0,0,0,0l8.7-5.76c.72-.48.92-1.45.44-2.17,0,0,0,0,0,0l-5.6-8.48c-.48-.72-1.45-.92-2.17-.44l-8.7,5.76c-.72.48-.92,1.45-.44,2.17,0,0,0,0,0,0ZM1080.88,103.75l3.89,5.87-6.09,4.03-3.89-5.87,6.09-4.03ZM1071.32,108.2l5.6,8.48c.48.72,1.45.92,2.17.44,0,0,0,0,0,0l8.7-5.76c.72-.48.92-1.44.44-2.16,0,0,0,0,0,0l-5.6-8.48c-.48-.72-1.45-.92-2.17-.44,0,0,0,0,0,0l-8.7,5.76c-.72.47-.92,1.44-.44,2.16,0,0,0,0,0,0h0ZM1089.19,116.3l3.89,5.87-6.09,4.03-3.89-5.87,6.09-4.03ZM1079.63,120.75l5.6,8.48c.48.72,1.45.92,2.17.44,0,0,0,0,0,0l8.7-5.76c.72-.48.92-1.45.44-2.17,0,0,0,0,0,0l-5.6-8.48c-.48-.72-1.45-.92-2.17-.44,0,0,0,0,0,0l-8.7,5.76c-.72.47-.92,1.44-.44,2.16,0,0,0,0,0,0ZM1099.77,132.28l3.89,5.87-6.09,4.03-3.89-5.87,6.09-4.03ZM1090.21,136.73l5.6,8.48c.48.72,1.45.92,2.17.44,0,0,0,0,0,0l8.7-5.76c.72-.48.92-1.45.44-2.17,0,0,0,0,0,0l-5.6-8.48c-.48-.72-1.45-.92-2.17-.44,0,0,0,0,0,0l-8.7,5.76c-.72.48-.92,1.45-.44,2.17,0,0,0,0,0,0h0ZM1105.87,154.73l-3.89-5.87,6.09-4.03,3.89,5.87-6.09,4.03ZM1115.43,150.28l-5.6-8.48c-.48-.72-1.45-.92-2.17-.44l-8.7,5.76c-.72.47-.92,1.44-.44,2.16,0,0,0,0,0,0l5.6,8.48c.48.72,1.45.92,2.17.44,0,0,0,0,0,0l8.7-5.76c.72-.47.92-1.44.44-2.16,0,0,0,0,0,0h0Z"/>
    <path id="C1" data-name="C" class="st0" d="M1116.45,170.71l-3.89-5.87,6.09-4.03,3.89,5.87-6.09,4.03ZM1126.01,166.26l-5.61-8.48c-.48-.72-1.45-.92-2.17-.44,0,0,0,0,0,0l-8.7,5.76c-.72.48-.92,1.45-.44,2.17,0,0,0,0,0,0l5.61,8.48c.48.72,1.45.92,2.17.44,0,0,0,0,0,0l8.7-5.76c.72-.47.92-1.44.44-2.16,0,0,0,0,0,0Z"/>
    <path class="st0" d="M1124.76,183.26l-3.89-5.87,6.09-4.03,3.89,5.87-6.09,4.03ZM1134.32,178.81l-5.6-8.48c-.48-.72-1.45-.92-2.17-.44,0,0,0,0,0,0l-8.7,5.76c-.72.48-.92,1.45-.44,2.17,0,0,0,0,0,0l5.6,8.48c.48.72,1.45.92,2.17.44,0,0,0,0,0,0l8.7-5.76c.72-.47.92-1.44.44-2.16,0,0,0,0,0,0ZM1134,197.23l-3.89-5.87,6.09-4.03,3.89,5.87-6.09,4.03ZM1143.56,192.78l-5.6-8.48c-.48-.72-1.45-.92-2.17-.44l-8.7,5.76c-.72.47-.92,1.44-.44,2.16,0,0,0,0,0,0l5.6,8.48c.48.72,1.45.92,2.17.44,0,0,0,0,0,0l8.7-5.76c.72-.48.92-1.45.44-2.17,0,0,0,0,0,0h0ZM1128.9,222.48l-3.88-5.87,21.25-14.06,3.89,5.87-21.25,14.07ZM1153.62,207.99l-5.6-8.48c-.48-.72-1.45-.92-2.17-.44l-23.86,15.79c-.72.48-.92,1.45-.44,2.16,0,0,0,0,0,0l5.6,8.48c.47.72,1.44.92,2.16.44,0,0,0,0,0,0l23.86-15.79c.72-.47.92-1.44.44-2.16,0,0,0,0,0,0h0ZM1101.56,180.57l-3.89-5.87,6.09-4.03,3.89,5.87-6.09,4.03ZM1111.12,176.12l-5.6-8.48c-.48-.72-1.45-.92-2.17-.44,0,0,0,0,0,0l-8.69,5.76c-.72.47-.92,1.44-.44,2.16,0,0,0,0,0,0l5.6,8.48c.48.72,1.45.92,2.17.44,0,0,0,0,0,0l8.69-5.75c.72-.48.92-1.45.44-2.17Z"/>
    <path id="D" class="st0" d="M1109.87,193.12l-3.89-5.87,6.09-4.03,3.89,5.87-6.09,4.03ZM1119.43,188.67l-5.61-8.48c-.48-.72-1.45-.92-2.17-.44l-8.69,5.75c-.72.47-.92,1.44-.44,2.16,0,0,0,0,0,0l5.61,8.48c.48.72,1.45.92,2.17.44,0,0,0,0,0,0l8.69-5.75c.72-.48.92-1.45.44-2.17Z"/>
    <path id="D1" data-name="D" class="st0" d="M1119.11,207.08l-3.89-5.87,6.09-4.03,3.89,5.87-6.09,4.03ZM1128.67,202.63l-5.61-8.48c-.48-.72-1.45-.92-2.17-.44l-8.69,5.75c-.72.47-.92,1.44-.44,2.16,0,0,0,0,0,0l5.61,8.48c.48.72,1.45.92,2.17.44,0,0,0,0,0,0l8.69-5.75c.72-.48.92-1.45.44-2.17Z"/>
    <path class="st0" d="M1173.56,183.55l3.89,5.87-6.09,4.03-3.89-5.87,6.09-4.03ZM1164,188l5.6,8.48c.48.72,1.45.92,2.17.44,0,0,0,0,0,0l8.7-5.76c.72-.48.92-1.45.44-2.17,0,0,0,0,0,0l-5.6-8.48c-.48-.72-1.45-.92-2.17-.44,0,0,0,0,0,0l-8.7,5.75c-.72.48-.92,1.45-.44,2.17,0,0,0,0,0,0ZM1056.2,38.02l3.89,5.87-6.09,4.03-3.89-5.87,6.09-4.03ZM1046.64,42.47l5.6,8.48c.48.72,1.45.92,2.17.44,0,0,0,0,0,0l8.69-5.75c.72-.48.92-1.45.44-2.17,0,0,0,0,0,0l-5.61-8.48c-.48-.72-1.45-.92-2.17-.44,0,0,0,0,0,0l-8.69,5.75c-.72.48-.92,1.45-.44,2.17,0,0,0,0,0,0h.01ZM1048.9,68.65l-11.87-17.93,6.09-4.03,11.87,17.93-6.09,4.03ZM1058.46,64.2l-13.6-20.54c-.48-.72-1.45-.92-2.17-.44,0,0,0,0,0,0l-8.7,5.76c-.72.48-.92,1.45-.44,2.16,0,0,0,0,0,0l13.59,20.54c.48.72,1.45.92,2.17.44,0,0,0,0,0,0l8.7-5.76c.72-.47.92-1.44.44-2.16,0,0,0,0,0,0ZM1034.01,78.51l-11.87-17.93,6.09-4.03,11.87,17.93-6.09,4.03ZM1043.56,74.06l-13.6-20.54c-.48-.72-1.45-.92-2.17-.44,0,0,0,0,0,0l-8.69,5.75c-.72.48-.92,1.45-.44,2.17,0,0,0,0,0,0l13.6,20.54c.48.72,1.45.92,2.17.44,0,0,0,0,0,0l8.69-5.75c.72-.48.92-1.45.44-2.17,0,0,0,0,0,0ZM1062.32,60.47l-3.89-5.87,6.09-4.03,3.89,5.87-6.09,4.03ZM1071.87,56.02l-5.6-8.48c-.48-.72-1.45-.92-2.17-.44,0,0,0,0,0,0l-8.69,5.75c-.72.48-.92,1.45-.44,2.17h0s5.61,8.48,5.61,8.48c.48.72,1.45.92,2.17.44,0,0,0,0,0,0l8.69-5.75c.72-.48.92-1.45.44-2.17,0,0,0,0,0,0h-.01Z"/>
    <path id="E" class="st0" d="M1072.89,76.44l-3.89-5.87,6.09-4.03,3.89,5.87-6.09,4.03ZM1082.45,72l-5.61-8.48c-.48-.72-1.45-.92-2.17-.44,0,0,0,0,0,0l-8.69,5.75c-.72.48-.92,1.45-.44,2.17,0,0,0,0,0,0l5.61,8.48c.48.72,1.45.92,2.17.44l8.69-5.76c.72-.47.92-1.44.44-2.16,0,0,0,0,0,0h0Z"/>
    <path id="F" class="st0" d="M1083.4,79.1l3.89,5.87-6.09,4.03-3.89-5.87,6.09-4.03ZM1073.85,83.55l5.61,8.48c.48.72,1.45.92,2.17.44l8.69-5.76c.72-.48.92-1.45.44-2.17h0s-5.61-8.48-5.61-8.48c-.48-.72-1.45-.92-2.17-.44,0,0,0,0,0,0l-8.69,5.75c-.72.48-.92,1.45-.44,2.17,0,0,0,0,0,0h0Z"/>
    <path class="st0" d="M1093.98,95.08l3.89,5.87-6.09,4.03-3.89-5.87,6.09-4.03ZM1084.42,99.53l5.6,8.48c.48.72,1.45.92,2.17.44l8.7-5.76c.72-.48.92-1.45.44-2.17h0s-5.61-8.48-5.61-8.48c-.48-.72-1.45-.92-2.17-.44,0,0,0,0,0,0l-8.69,5.76c-.72.47-.92,1.44-.44,2.16,0,0,0,0,0,0h.01ZM1102.29,107.63l3.89,5.87-6.09,4.03-3.89-5.87,6.09-4.03ZM1092.73,112.08l5.6,8.48c.48.72,1.45.92,2.17.44,0,0,0,0,0,0l8.69-5.75c.72-.48.92-1.45.44-2.17,0,0,0,0,0,0l-5.61-8.48c-.48-.72-1.45-.92-2.17-.44,0,0,0,0,0,0l-8.69,5.76c-.72.47-.92,1.44-.44,2.16,0,0,0,0,0,0h.01Z"/>
    <path id="F1" data-name="F" class="st0" d="M1112.86,123.61l3.89,5.87-6.09,4.03-3.89-5.87,6.09-4.03ZM1103.31,128.06l5.61,8.48c.48.72,1.45.92,2.17.44l8.69-5.76c.72-.48.92-1.45.44-2.17h0s-5.61-8.48-5.61-8.48c-.48-.72-1.45-.92-2.17-.44,0,0,0,0,0,0l-8.69,5.75c-.72.48-.92,1.45-.44,2.17,0,0,0,0,0,0h0Z"/>
    <path class="st0" d="M1118.97,146.06l-3.89-5.87,6.09-4.03,3.89,5.87-6.09,4.03ZM1128.53,141.61l-5.61-8.48c-.48-.72-1.45-.92-2.17-.44h0s-8.69,5.76-8.69,5.76c-.72.48-.92,1.45-.44,2.17,0,0,0,0,0,0l5.61,8.48c.48.72,1.45.92,2.17.44,0,0,0,0,0,0l8.69-5.76c.72-.47.92-1.44.44-2.16,0,0,0,0,0,0h0Z"/>
    <path id="E1" data-name="E" class="st0" d="M1129.55,162.04l-3.89-5.87,6.09-4.03,3.89,5.87-6.09,4.03ZM1139.1,157.59l-5.61-8.48c-.48-.72-1.45-.92-2.17-.44,0,0,0,0,0,0l-8.69,5.75c-.72.48-.92,1.45-.44,2.17,0,0,0,0,0,0l5.61,8.48c.48.72,1.45.92,2.17.44l8.69-5.76c.72-.47.92-1.44.44-2.16,0,0,0,0,0,0h0Z"/>
    <path class="st0" d="M1137.86,174.59l-3.89-5.87,6.09-4.03,3.89,5.87-6.09,4.03ZM1147.41,170.14l-5.6-8.48c-.48-.72-1.45-.92-2.17-.44,0,0,0,0,0,0l-8.69,5.76c-.72.48-.92,1.44-.44,2.16,0,0,0,0,0,0l5.61,8.48c.48.72,1.45.92,2.17.44l8.69-5.76c.72-.47.92-1.44.44-2.16,0,0,0,0,0,0h-.01ZM1149.34,178.72l13.5,20.38-6.09,4.03-13.5-20.38,6.09-4.03ZM1139.78,183.17l15.21,22.99c.48.72,1.45.92,2.17.44,0,0,0,0,0,0l8.69-5.75c.72-.48.92-1.45.44-2.17,0,0,0,0,0,0l-15.22-22.99c-.47-.72-1.44-.92-2.16-.44,0,0,0,0,0,0l-8.69,5.75c-.72.48-.92,1.45-.44,2.17,0,0,0,0,0,0h0ZM.77,283.38c.11-.91.73-1.69,1.59-2.01l154.13-56.79c1.18-.44,2.51.09,3.06,1.23,24.7,49.79,17.37,109.51-18.65,151.84-.81.97-2.22,1.16-3.27.45L1.83,285.71c-.76-.52-1.17-1.42-1.06-2.33h0Z"/>
    <path class="st0" d="M.77,283.38c.11-.91.73-1.69,1.59-2.01l182.15-67.12c1.18-.44,2.51.1,3.06,1.23,29.12,58.68,20.47,129.07-21.98,178.96-.81.97-2.22,1.16-3.27.45L1.83,285.71c-.76-.52-1.17-1.42-1.06-2.33h0Z"/>
    <path class="st0" d="M147.91,262.15c.58-4.71-2.77-8.99-7.47-9.57-4.71-.58-8.99,2.77-9.57,7.47-.58,4.71,2.77,8.99,7.47,9.57,0,0,0,0,0,0,4.7.57,8.98-2.77,9.57-7.48ZM125.99,259.45c.91-7.4,7.65-12.67,15.05-11.76,7.4.91,12.67,7.65,11.76,15.05-.91,7.4-7.65,12.67-15.05,11.76,0,0,0,0,0,0-7.4-.92-12.66-7.65-11.76-15.05ZM111.65,320.28c.63-5.08-2.99-9.71-8.07-10.33s-9.71,2.99-10.33,8.07c-.63,5.08,2.99,9.71,8.07,10.33,0,0,0,0,0,0,5.08.62,9.7-2.99,10.33-8.07ZM88.37,317.42c.95-7.78,8.03-13.31,15.81-12.36,7.78.95,13.31,8.03,12.36,15.81-.95,7.78-8.03,13.31-15.81,12.36,0,0,0,0,0,0-7.77-.96-13.3-8.03-12.35-15.81ZM142.86,301.65c-.33,2.7-3.18,3.58-5.93,4.42-1.64.38-3.19,1.04-4.61,1.95-.07,1.69,4.06,6.03,5.95,7.05,1.06-.74,3.23-3.54,4.82-6.28.68-1.17,2.19-1.57,3.36-.89.32.19.59.44.8.75l4.16,6.06c3.32-2.41,5.56-6.04,6.21-10.1.33-2.75-.4-5.52-2.05-7.74-5.15-7.27-12.66-4.92-16.16-3.24l3,5.72c.39.7.55,1.5.46,2.3h0ZM127.44,307.35c.13-1.14.68-2.18,1.54-2.94,1.78-1.58,4.29-2.35,6.5-3.04.63-.2,1.45-.45,2.07-.68l-3.61-6.9c-.58-1.11-.23-2.49.81-3.19,5.26-3.51,17.22-7.32,24.83,3.42,2.37,3.21,3.42,7.22,2.92,11.18-.92,7.49-6.87,13.65-10.56,14.59-1.38.45-2.9-.02-3.77-1.18-.97-1.36-1.93-2.74-2.87-4.12-2.93,4.22-5.58,6.07-7.88,5.5-3.04-.76-10.58-7.58-9.96-12.65h0ZM59.94,274.92c-3.32,2.41-5.55,6.04-6.21,10.1h0c-.33,2.75.4,5.52,2.05,7.74,5.12,7.23,12.64,4.9,16.16,3.23l-2.99-5.71c-.39-.7-.55-1.5-.46-2.3.33-2.7,3.18-3.58,5.93-4.42,1.64-.38,3.19-1.04,4.61-1.95.06-1.7-4.06-6.04-5.94-7.05-1.07.74-3.23,3.54-4.82,6.28-.68,1.17-2.19,1.57-3.36.89-.32-.19-.6-.44-.81-.75l-4.16-6.06h0ZM48.85,284.41c.92-7.49,6.87-13.64,10.56-14.59,1.38-.45,2.89.02,3.78,1.18l2.87,4.12c2.94-4.22,5.58-6.06,7.88-5.5,3.04.76,10.58,7.58,9.96,12.64-.13,1.14-.68,2.18-1.54,2.94-1.78,1.59-4.29,2.36-6.5,3.04-.62.2-1.45.44-2.06.68l3.61,6.9c.58,1.11.23,2.49-.81,3.18-5.26,3.51-17.22,7.32-24.83-3.42-2.37-3.21-3.42-7.22-2.92-11.18h0ZM112.87,269.67l-2.35,1.51-.13,6.37,5.73-3.32-3.25-4.57ZM105.65,269.53c.09-.73.49-1.37,1.11-1.77l5.42-3.49c1.11-.71,2.57-.43,3.33.64l6.17,8.68c.79,1.11.53,2.64-.58,3.43-.06.04-.12.08-.19.12l-11.85,6.86c-1.18.68-2.68.28-3.36-.9-.23-.39-.34-.83-.33-1.28l.25-12.05.02-.25ZM137.63,339.89l-6.38-.13,3.32,5.73,4.57-3.25-1.51-2.35ZM124.49,336.91c.04-.34.15-.66.32-.95.45-.77,1.28-1.23,2.17-1.21l12.05.25c.82.02,1.57.44,2.02,1.12l3.49,5.42c.71,1.1.43,2.57-.64,3.33l-8.68,6.17c-1.11.79-2.64.52-3.43-.58-.04-.06-.08-.12-.12-.19l-6.87-11.85c-.27-.46-.38-1-.31-1.53h0ZM778.59,246.23h-337.56s0,12.75,12.74,12.75h351.1c12.79,0,12.79-12.75,12.79-12.75h-39.07ZM495.47,63.62h267.73v160.51h-267.73V63.62ZM778.59,238.97c.5-1.2.76-2.49.77-3.8V57.7c-.04-5.62-4.6-10.16-10.22-10.18h-279.62c-5.62.01-10.18,4.56-10.21,10.18v177.48c0,1.3.27,2.59.77,3.8h298.52Z"/>
  </g>
  <g>
    <path class="st0" d="M312.48,217.06c-1.64-3.37-6.64-14.84-12.2-39.6-5.71-25.37-3.5-38.4-2.72-41.74l13.45-3.03c22.24-5.12,44.42,8.77,49.53,31.01,5.12,22.24-8.77,44.42-31.01,49.53-.12.03-.25.06-.37.08l-16.69,3.75ZM291.1,221.87c-22.24,5.12-44.42-8.77-49.53-31.01-5.12-22.24,8.77-44.42,31.01-49.53.12-.03.25-.06.37-.08l20.9-4.71c-1,5.36-2.15,18.5,3.07,41.66,5.3,23.53,10.08,35.26,12.12,39.62l-17.93,4.04ZM368.08,161.64l.7,3.07-4.45,1-.7-3.07,4.45-1ZM412.18,98.87c-8.08,2.09-14.46,4.56-17.14,7.42-4.86,5.2-6.63,12.26-5.26,20.99,1.67,10.56.17,18.99-4.43,25.04-3.49,4.41-8.39,7.48-13.88,8.72l-.41-1.83c-.21-.93-1.13-1.51-2.06-1.3l-6.31,1.42c-7.1-22.05-29.84-35.06-52.45-30l-38.06,8.57c-24.1,5.53-39.15,29.55-33.62,53.64,5.5,23.96,29.29,39,53.29,33.7l38.06-8.57c21.81-4.94,36.65-25.21,34.76-47.5l6.54-1.47c.93-.21,1.51-1.13,1.3-2.06l-.28-1.23c6.27-1.4,11.86-4.91,15.84-9.96,5.22-6.83,6.94-16.15,5.12-27.7-1.2-7.62.27-13.7,4.36-18.1,2.24-2.4,7.77-4.53,14.9-6.38M330.04,177.7c-3.15.71-6.27-1.27-6.98-4.42-.71-3.15,1.27-6.27,4.42-6.98l14.05-3.16c3.14-.74,6.29,1.21,7.02,4.35s-1.21,6.29-4.35,7.02c-.04,0-.07.02-.11.02l-14.06,3.16ZM351.88,166.8c-1.13-5-6.1-8.14-11.1-7.02l-14.06,3.16c-5,1.16-8.11,6.15-6.95,11.14,1.15,4.95,6.06,8.06,11.03,6.98l14.06-3.16c5-1.13,8.14-6.1,7.02-11.1h0Z"/>
    <path class="st0" d="M412.46,102.28c23.3-6.03,65.15-9.19,65.31-9.18.95.08,1.78-.62,1.87-1.56.02-.18,0-.37-.03-.54-.16-.73-.78-1.26-1.53-1.32-.69-.06-41.63,2.93-65.9,9.2M1018.79,315.79l.54.15s-.2-.04-.54-.15Z"/>
    <path class="st0" d="M993.6,238.64s22.97,6.04,19.59,21.59c2.95.58,21.87,5.26,6.16,27.83-15.14,21.74-3.31,26.88-.54,27.75-4.3-1.22-32.32-10.01-12.97-27.75,20.5-18.8,12.55-22.52,7.29-27.58-1.04,4.45-4.23,9.68-10.72,15.76-28.76,26.94,0,37.6,0,37.6,0,0-48.93-14.81-18.2-37.6,30.54-22.65,14.96-30.12,9.4-37.6M1061.04,341.53c-1.68-2.7-4.95-4.23-8.74-4.44-.17.9-2.85,15.18-5.99,21.18,2.64-.11,5.22-.77,7.59-1.95,6.91-3.4,10.11-10.02,7.14-14.8h0ZM1044.58,358.21l-.02.05.74.04-.72-.08Z"/>
    <path class="st0" d="M941.81,320.77h112.1c-.08,3.3-.29,6.54-.63,9.73,6.36-.29,12.07,2.21,14.8,7.16,4.25,7.68-.32,18.34-10.2,23.8-4.32,2.47-9.31,3.51-14.26,3-2.09,4.24-4.57,8.29-7.38,12.1h-76.75c-10.48-14.06-17.18-33.8-17.67-55.79"/>
  </g>
</svg>